<svg width="24" height="24" viewBox="0 0 24 24" fill="none" xmlns="http://www.w3.org/2000/svg">
<path d="M13.0001 19C13.0001 19.5523 12.5524 20 12.0001 20C11.4478 20 11.0001 19.5523 11.0001 19L11.0001 5C11.0001 4.44772 11.4478 4 12.0001 4C12.5524 4 13.0001 4.44772 13.0001 5L13.0001 19Z" fill="#F6F7F7"/>
<path d="M19.7071 11.293C20.0976 11.6835 20.0976 12.3165 19.7071 12.707C19.3166 13.0976 18.6836 13.0976 18.293 12.707L11.293 5.70703C10.9025 5.31651 10.9025 4.68349 11.293 4.29297C11.6836 3.90244 12.3166 3.90244 12.7071 4.29297L19.7071 11.293Z" fill="#F6F7F7"/>
<path d="M12.7071 5.70703C13.0976 5.31651 13.0976 4.68349 12.7071 4.29297C12.3166 3.90244 11.6836 3.90244 11.293 4.29297L4.29304 11.293C3.90252 11.6835 3.90252 12.3165 4.29304 12.707C4.68357 13.0976 5.31658 13.0976 5.70711 12.707L12.7071 5.70703Z" fill="#F6F7F7"/>
</svg>
