<svg width="24" height="24" viewBox="0 0 24 24" fill="none" xmlns="http://www.w3.org/2000/svg">
<path d="M12 2C17.5228 2 22 6.47715 22 12C22 17.5228 17.5228 22 12 22C6.47715 22 2 17.5228 2 12C2 6.47715 6.47715 2 12 2ZM11.8018 15.9756C11.3458 15.9756 10.9679 16.1259 10.668 16.4258C10.368 16.7258 10.2178 17.1101 10.2178 17.5781C10.2178 18.034 10.368 18.412 10.668 18.7119C10.9679 19.0118 11.3458 19.1621 11.8018 19.1621C12.2577 19.1621 12.6356 19.0118 12.9355 18.7119C13.2355 18.412 13.3857 18.034 13.3857 17.5781C13.3857 17.1101 13.2355 16.7258 12.9355 16.4258C12.6356 16.1259 12.2577 15.9756 11.8018 15.9756ZM12.0898 5.32031C11.1418 5.32031 10.2715 5.52364 9.47949 5.93164C8.6997 6.32756 8.02218 6.85584 7.44629 7.51562L8.92188 8.88379C9.36572 8.41596 9.81565 8.06225 10.2715 7.82227C10.7275 7.58227 11.2322 7.46191 11.7842 7.46191C12.264 7.46195 12.6719 7.52819 13.0078 7.66016C13.3556 7.7921 13.6198 7.98353 13.7998 8.23535C13.9798 8.48735 14.0693 8.7943 14.0693 9.1543C14.0692 9.44211 13.9797 9.70642 13.7998 9.94629C13.6199 10.1862 13.3855 10.4196 13.0977 10.6475C12.8218 10.8754 12.5221 11.1097 12.1982 11.3496C11.8863 11.5896 11.5979 11.8537 11.334 12.1416C11.082 12.4296 10.8842 12.7543 10.7402 13.1143C10.6083 13.4742 10.5718 13.8941 10.6318 14.374H12.9541C12.9181 13.954 12.9778 13.5874 13.1338 13.2754C13.2898 12.9635 13.5063 12.6816 13.7822 12.4297C14.0581 12.1778 14.3578 11.9378 14.6816 11.71C15.0056 11.47 15.3116 11.2237 15.5996 10.9717C15.8995 10.7077 16.1393 10.4138 16.3193 10.0898C16.5113 9.75387 16.6074 9.36388 16.6074 8.91992C16.6074 8.11592 16.4097 7.44987 16.0137 6.92188C15.6297 6.38196 15.096 5.97982 14.4121 5.71582C13.7401 5.45182 12.9658 5.32032 12.0898 5.32031Z" fill="#C5CCCB"/>
</svg>
